<?xml version="1.0" standalone="no"?>
<!DOCTYPE svg PUBLIC "-//W3C//DTD SVG 20010904//EN"
 "http://www.w3.org/TR/2001/REC-SVG-20010904/DTD/svg10.dtd">
<svg version="1.0" xmlns="http://www.w3.org/2000/svg"
 width="100.000000pt" height="100.000000pt" viewBox="0 0 100.000000 100.000000"
 preserveAspectRatio="xMidYMid meet">

<g transform="translate(0.000000,100.000000) scale(0.100000,-0.100000)"
fill="#000000" stroke="none">
<path d="M73 965 c-57 -24 -92 -107 -58 -135 12 -10 18 -10 30 0 8 7 15 19 15
27 0 19 45 63 65 63 22 0 65 -45 65 -68 0 -11 -18 -40 -41 -65 -62 -71 -73
-137 -23 -137 19 0 25 8 34 38 5 21 22 49 36 63 56 52 68 111 34 167 -20 33
-72 62 -107 62 -10 -1 -33 -7 -50 -15z"/>
<path d="M434 909 c-82 -14 -106 -26 -102 -52 3 -19 8 -22 38 -19 19 2 80 4
135 5 90 2 105 -1 150 -25 119 -62 187 -169 193 -303 5 -114 -21 -180 -102
-261 -81 -81 -147 -107 -261 -102 -160 7 -279 102 -329 261 -7 23 -33 32 -50
17 -33 -26 31 -156 113 -234 167 -155 423 -147 580 19 155 164 156 406 2 568
-96 102 -233 149 -367 126z"/>
<path d="M407 602 c-22 -24 -21 -45 1 -65 35 -32 82 -10 82 38 0 42 -54 59
-83 27z"/>
<path d="M664 595 c-15 -23 -15 -27 0 -50 27 -42 86 -26 86 23 0 55 -56 72
-86 27z"/>
<path d="M90 581 c-12 -24 -4 -48 20 -56 39 -12 68 20 50 56 -14 25 -56 25
-70 0z"/>
<path d="M559 431 c-95 -37 -148 -96 -116 -129 14 -14 19 -12 52 16 51 45 90
63 151 69 56 6 80 22 70 48 -8 21 -98 19 -157 -4z"/>
</g>
</svg>
